<?xml version="1.0" encoding="UTF-8" standalone="no"?>
<!-- Created with Inkscape (http://www.inkscape.org/) -->

<svg
   width="1000"
   height="1000"
   viewBox="0 0 264.58333 264.58333"
   version="1.1"
   id="svg1"
   xml:space="preserve"
   sodipodi:docname="rocket-code-white.svg"
   inkscape:version="1.3.2 (091e20e, 2023-11-25, custom)"
   xmlns:inkscape="http://www.inkscape.org/namespaces/inkscape"
   xmlns:sodipodi="http://sodipodi.sourceforge.net/DTD/sodipodi-0.dtd"
   xmlns="http://www.w3.org/2000/svg"
   xmlns:svg="http://www.w3.org/2000/svg"><sodipodi:namedview
     id="namedview1"
     pagecolor="#505050"
     bordercolor="#ffffff"
     borderopacity="1"
     inkscape:showpageshadow="0"
     inkscape:pageopacity="0"
     inkscape:pagecheckerboard="1"
     inkscape:deskcolor="#505050"
     inkscape:document-units="px"
     showguides="false"
     inkscape:zoom="0.51972348"
     inkscape:cx="416.56767"
     inkscape:cy="643.61148"
     inkscape:window-width="1920"
     inkscape:window-height="991"
     inkscape:window-x="-9"
     inkscape:window-y="-9"
     inkscape:window-maximized="1"
     inkscape:current-layer="g5" /><defs
     id="defs1" /><g
     inkscape:groupmode="layer"
     id="layer3"
     inkscape:label="Negro"
     style="display:none"><circle
       style="display:inline;fill:#222222;fill-opacity:1;stroke-width:0.330729"
       id="path2"
       cx="132.29166"
       cy="104.82181"
       r="13.229166"
       inkscape:label="Window" /><path
       d="m 101.66814,194.08328 c -2.055889,-6.27956 -3.877309,-12.63601 -5.464258,-19.06937 -1.587031,-6.43344 -2.87929,-12.90471 -3.876776,-19.41382 l -14.980129,9.94502 c -0.394776,0.26843 -0.697363,0.60724 -0.907763,1.01642 -0.215413,0.40444 -0.321422,0.8553 -0.318025,1.35258 l 0.141952,35.58665 c 0.0017,0.24865 0.116821,0.44475 0.34536,0.58827 0.228434,0.14365 0.445847,0.1528 0.652237,0.0274 z M 129.79067,62.741159 c -10.49677,12.183835 -17.93125,24.322788 -22.30346,36.41687 -4.37179,12.094541 -6.55014,25.948041 -6.53506,41.560411 0.0434,7.58268 0.98266,15.82856 2.81783,24.73762 1.83496,8.90911 4.46566,17.99581 7.8921,27.26012 l 41.13666,-0.23594 c 3.25774,-9.32322 5.76324,-18.46004 7.51651,-27.41046 1.75327,-8.95042 2.60814,-17.21691 2.56462,-24.79949 -0.0892,-15.53748 -2.37529,-29.31469 -6.85854,-41.331577 -4.48304,-12.016833 -12.0427,-24.056442 -22.67895,-36.118831 -0.22088,-0.21837 -0.48346,-0.401929 -0.78774,-0.550675 -0.3051,-0.149556 -0.65251,-0.244041 -1.04222,-0.283455 -0.34783,0.0017 -0.65693,0.06236 -0.92729,0.182 z m 33.19835,131.232671 24.34271,9.5704 c 0.20806,0.12335 0.41494,0.10151 0.62063,-0.0657 0.20967,-0.16295 0.31201,-0.37037 0.30701,-0.62226 l -0.11007,-35.43188 c -0.003,-0.49647 -0.12422,-0.95609 -0.36451,-1.37888 -0.24042,-0.42279 -0.53708,-0.74697 -0.88999,-0.97252 l -15.08818,-9.96498 c -0.92273,6.52013 -2.11147,13.04693 -3.5662,19.58042 -1.45475,6.53368 -3.20494,12.96243 -5.25056,19.28626 z M 136.14376,51.156903 c 12.29977,12.044628 21.48335,25.41797 27.55073,40.120023 6.06734,14.702134 9.17256,30.918704 9.31565,48.649594 -0.0379,0.59632 -0.0663,1.24938 -0.0854,1.95916 -0.019,0.7097 -0.0576,1.37307 -0.11598,1.99009 l 19.49984,12.79569 c 1.8903,1.22669 3.31057,2.77895 4.26083,4.65677 0.95041,1.87797 1.43162,3.86403 1.44363,5.95816 l 0.30236,41.89344 c -0.0276,2.40912 -0.97745,4.23578 -2.84952,5.47999 -1.87204,1.24401 -3.86631,1.36716 -5.9828,0.36943 l -32.08317,-12.66681 -50.23781,0.30058 -31.967369,13.04098 c -2.147012,0.98053 -4.116124,0.80562 -5.907334,-0.52474 -1.791621,-1.33076 -2.731237,-3.14243 -2.818846,-5.43499 L 66.278589,167.9372 c -0.08621,-2.0194 0.349379,-4.00038 1.306786,-5.94294 0.957652,-1.9423 2.354041,-3.5168 4.189166,-4.72348 l 19.32093,-12.98741 c -0.0034,-0.55459 -0.0089,-1.17321 -0.01671,-1.85588 -0.0078,-0.68265 0.03405,-1.34922 0.125485,-1.9997 -0.196504,-17.67669 2.635692,-33.90245 8.496586,-48.677162 5.860998,-14.774774 14.892788,-28.233947 27.095378,-40.377519 0.60103,-0.689773 1.32027,-1.182501 2.15773,-1.478186 0.83822,-0.294811 1.70041,-0.444517 2.58659,-0.449118 0.92708,0.03584 1.76392,0.169658 2.51056,0.401448 0.74638,0.231705 1.44425,0.66852 2.09358,1.310448 z"
       id="path4"
       style="display:inline;fill:#222222;fill-opacity:1;stroke-width:0.228283"
       sodipodi:nodetypes="ccccccccccccccccscccccccccccccccsccccccccccccccccccccccscccccscc"
       inkscape:label="Rocket"
       transform="translate(0,-21.022612)" /><path
       id="path1-0"
       style="fill:#222222;fill-opacity:1;stroke-width:0.268577"
       inkscape:label="PC"
       d="m 46.284047,93.725864 c -4.047617,0 -7.569665,1.497865 -10.565349,4.493743 -2.995877,2.995843 -4.49374,6.517323 -4.49374,10.564813 v 111.70982 c 0,4.04779 1.497863,7.56951 4.49374,10.56535 2.995684,2.99588 6.525365,4.49374 10.588019,4.49374 v 9.85471 H 15.637101 c -1.709726,0 -3.13406,0.55753 -4.272849,1.67276 -1.138794,1.11566 -1.7080843,2.50448 -1.7080843,4.16582 0,1.66193 0.5692903,3.06663 1.7080843,4.21434 1.138941,1.14772 2.563274,1.72126 4.272849,1.72126 l 233.495229,5.3e-4 c 1.56683,0 2.92424,-0.5575 4.07251,-1.67276 1.14814,-1.11564 1.72232,-2.53525 1.72232,-4.25862 0,-1.58122 -0.56842,-2.95012 -1.70493,-4.10731 -1.1364,-1.1572 -2.47381,-1.73602 -4.01294,-1.73602 h -30.93216 v -9.85471 c 4.06265,0 7.59181,-1.49786 10.5875,-4.49374 2.99587,-2.99584 4.49374,-6.51756 4.49374,-10.56535 V 108.78442 c 0,-4.04749 -1.49787,-7.56897 -4.49374,-10.564813 -2.99569,-2.995878 -6.51723,-4.493743 -10.56483,-4.493743 h -56.53392 v 11.774186 h 56.51125 c 0.89524,0 1.67011,0.3101 2.32438,0.92996 0.65425,0.62017 0.98109,1.41186 0.98109,2.3755 v 111.665 c 0,0.9642 -0.32684,1.75614 -0.98109,2.37604 -0.65419,0.61986 -1.42906,0.92995 -2.32438,0.92995 H 46.306717 c -0.895244,0 -1.67011,-0.31009 -2.324367,-0.92995 -0.654257,-0.62042 -0.981621,-1.41237 -0.981621,-2.37604 v -111.665 c 0,-0.96392 0.327364,-1.75561 0.981621,-2.3755 0.654196,-0.61986 1.429061,-0.92996 2.324367,-0.92996 H 102.61079 V 93.725864 Z"
       transform="translate(0,-21.022612)" /></g><g
     inkscape:groupmode="layer"
     id="g5"
     inkscape:label="Blanco"
     style="display:inline"><circle
       style="display:inline;fill:#dedede;fill-opacity:1;stroke-width:0.330729"
       id="circle2"
       cx="132.29166"
       cy="104.82181"
       r="13.229166"
       inkscape:label="Window" /><path
       d="m 101.66814,194.08328 c -2.055889,-6.27956 -3.877309,-12.63601 -5.464258,-19.06937 -1.587031,-6.43344 -2.87929,-12.90471 -3.876776,-19.41382 l -14.980129,9.94502 c -0.394776,0.26843 -0.697363,0.60724 -0.907763,1.01642 -0.215413,0.40444 -0.321422,0.8553 -0.318025,1.35258 l 0.141952,35.58665 c 0.0017,0.24865 0.116821,0.44475 0.34536,0.58827 0.228434,0.14365 0.445847,0.1528 0.652237,0.0274 z M 129.79067,62.741159 c -10.49677,12.183835 -17.93125,24.322788 -22.30346,36.41687 -4.37179,12.094541 -6.55014,25.948041 -6.53506,41.560411 0.0434,7.58268 0.98266,15.82856 2.81783,24.73762 1.83496,8.90911 4.46566,17.99581 7.8921,27.26012 l 41.13666,-0.23594 c 3.25774,-9.32322 5.76324,-18.46004 7.51651,-27.41046 1.75327,-8.95042 2.60814,-17.21691 2.56462,-24.79949 -0.0892,-15.53748 -2.37529,-29.31469 -6.85854,-41.331577 -4.48304,-12.016833 -12.0427,-24.056442 -22.67895,-36.118831 -0.22088,-0.21837 -0.48346,-0.401929 -0.78774,-0.550675 -0.3051,-0.149556 -0.65251,-0.244041 -1.04222,-0.283455 -0.34783,0.0017 -0.65693,0.06236 -0.92729,0.182 z m 33.19835,131.232671 24.34271,9.5704 c 0.20806,0.12335 0.41494,0.10151 0.62063,-0.0657 0.20967,-0.16295 0.31201,-0.37037 0.30701,-0.62226 l -0.11007,-35.43188 c -0.003,-0.49647 -0.12422,-0.95609 -0.36451,-1.37888 -0.24042,-0.42279 -0.53708,-0.74697 -0.88999,-0.97252 l -15.08818,-9.96498 c -0.92273,6.52013 -2.11147,13.04693 -3.5662,19.58042 -1.45475,6.53368 -3.20494,12.96243 -5.25056,19.28626 z M 136.14376,51.156903 c 12.29977,12.044628 21.48335,25.41797 27.55073,40.120023 6.06734,14.702134 9.17256,30.918704 9.31565,48.649594 -0.0379,0.59632 -0.0663,1.24938 -0.0854,1.95916 -0.019,0.7097 -0.0576,1.37307 -0.11598,1.99009 l 19.49984,12.79569 c 1.8903,1.22669 3.31057,2.77895 4.26083,4.65677 0.95041,1.87797 1.43162,3.86403 1.44363,5.95816 l 0.30236,41.89344 c -0.0276,2.40912 -0.97745,4.23578 -2.84952,5.47999 -1.87204,1.24401 -3.86631,1.36716 -5.9828,0.36943 l -32.08317,-12.66681 -50.23781,0.30058 -31.967369,13.04098 c -2.147012,0.98053 -4.116124,0.80562 -5.907334,-0.52474 -1.791621,-1.33076 -2.731237,-3.14243 -2.818846,-5.43499 L 66.278589,167.9372 c -0.08621,-2.0194 0.349379,-4.00038 1.306786,-5.94294 0.957652,-1.9423 2.354041,-3.5168 4.189166,-4.72348 l 19.32093,-12.98741 c -0.0034,-0.55459 -0.0089,-1.17321 -0.01671,-1.85588 -0.0078,-0.68265 0.03405,-1.34922 0.125485,-1.9997 -0.196504,-17.67669 2.635692,-33.90245 8.496586,-48.677162 5.860998,-14.774774 14.892788,-28.233947 27.095378,-40.377519 0.60103,-0.689773 1.32027,-1.182501 2.15773,-1.478186 0.83822,-0.294811 1.70041,-0.444517 2.58659,-0.449118 0.92708,0.03584 1.76392,0.169658 2.51056,0.401448 0.74638,0.231705 1.44425,0.66852 2.09358,1.310448 z"
       id="path3"
       style="display:inline;fill:#dedede;fill-opacity:1;stroke-width:0.228283"
       sodipodi:nodetypes="ccccccccccccccccscccccccccccccccsccccccccccccccccccccccscccccscc"
       inkscape:label="Rocket"
       transform="translate(0,-21.022612)" /><path
       id="path5"
       style="fill:#dedede;fill-opacity:1;stroke-width:0.268577"
       inkscape:label="PC"
       d="m 46.284047,93.725864 c -4.047617,0 -7.569665,1.497865 -10.565349,4.493743 -2.995877,2.995843 -4.49374,6.517323 -4.49374,10.564813 v 111.70982 c 0,4.04779 1.497863,7.56951 4.49374,10.56535 2.995684,2.99588 6.525365,4.49374 10.588019,4.49374 v 9.85471 H 15.637101 c -1.709726,0 -3.13406,0.55753 -4.272849,1.67276 -1.138794,1.11566 -1.7080843,2.50448 -1.7080843,4.16582 0,1.66193 0.5692903,3.06663 1.7080843,4.21434 1.138941,1.14772 2.563274,1.72126 4.272849,1.72126 l 233.495229,5.3e-4 c 1.56683,0 2.92424,-0.5575 4.07251,-1.67276 1.14814,-1.11564 1.72232,-2.53525 1.72232,-4.25862 0,-1.58122 -0.56842,-2.95012 -1.70493,-4.10731 -1.1364,-1.1572 -2.47381,-1.73602 -4.01294,-1.73602 h -30.93216 v -9.85471 c 4.06265,0 7.59181,-1.49786 10.5875,-4.49374 2.99587,-2.99584 4.49374,-6.51756 4.49374,-10.56535 V 108.78442 c 0,-4.04749 -1.49787,-7.56897 -4.49374,-10.564813 -2.99569,-2.995878 -6.51723,-4.493743 -10.56483,-4.493743 h -56.53392 v 11.774186 h 56.51125 c 0.89524,0 1.67011,0.3101 2.32438,0.92996 0.65425,0.62017 0.98109,1.41186 0.98109,2.3755 v 111.665 c 0,0.9642 -0.32684,1.75614 -0.98109,2.37604 -0.65419,0.61986 -1.42906,0.92995 -2.32438,0.92995 H 46.306717 c -0.895244,0 -1.67011,-0.31009 -2.324367,-0.92995 -0.654257,-0.62042 -0.981621,-1.41237 -0.981621,-2.37604 v -111.665 c 0,-0.96392 0.327364,-1.75561 0.981621,-2.3755 0.654196,-0.61986 1.429061,-0.92996 2.324367,-0.92996 H 102.61079 V 93.725864 Z"
       transform="translate(0,-21.022612)" /></g></svg>
