<?xml version="1.0" encoding="UTF-8" standalone="no"?>
<svg
   width="500"
   height="500"
   viewBox="0 0 500 500"
   fill="none"
   stroke="currentColor"
   stroke-width="2"
   stroke-linecap="round"
   stroke-linejoin="round"
   class="icon icon-tabler icons-tabler-outline icon-tabler-device-desktop"
   version="1.1"
   id="svg5"
   sodipodi:docname="interdata-white-transparent-small.svg"
   xml:space="preserve"
   inkscape:version="1.3.2 (091e20e, 2023-11-25, custom)"
   inkscape:export-filename="inter-data.png"
   inkscape:export-xdpi="1000"
   inkscape:export-ydpi="1000"
   xmlns:inkscape="http://www.inkscape.org/namespaces/inkscape"
   xmlns:sodipodi="http://sodipodi.sourceforge.net/DTD/sodipodi-0.dtd"
   xmlns="http://www.w3.org/2000/svg"
   xmlns:svg="http://www.w3.org/2000/svg"><defs
     id="defs5" /><sodipodi:namedview
     id="namedview5"
     pagecolor="#505050"
     bordercolor="#ffffff"
     borderopacity="1"
     inkscape:showpageshadow="0"
     inkscape:pageopacity="0"
     inkscape:pagecheckerboard="1"
     inkscape:deskcolor="#505050"
     inkscape:zoom="1"
     inkscape:cx="195"
     inkscape:cy="202.5"
     inkscape:window-width="1920"
     inkscape:window-height="991"
     inkscape:window-x="-9"
     inkscape:window-y="-9"
     inkscape:window-maximized="1"
     inkscape:current-layer="svg5" /><g
     id="g10"
     transform="matrix(17.206944,0,0,17.206944,43.516672,55.743623)"><g
       id="g5"
       inkscape:label="desktop"><path
         id="path2"
         d="M 18.988281,4 H 20 a 1,1 0 0 1 1,1 v 10 a 1,1 0 0 1 -1,1 H 4 A 1,1 0 0 1 3,15 V 5 5 A 1,1 0 0 1 4,4 h 1.0117188"
         style="fill:none;stroke:#dedede;stroke-opacity:1" /><path
         d="M 7,20 H 17"
         id="path3"
         style="stroke:#dedede;stroke-opacity:1" /><path
         d="m 9,16 v 4"
         id="path4"
         style="stroke:#dedede;stroke-opacity:1" /><path
         d="m 15,16 v 4"
         id="path5"
         style="stroke:#dedede;stroke-opacity:1" /></g><g
       style="display:inline;fill:none;stroke:#dedede;stroke-width:2;stroke-linecap:round;stroke-linejoin:round;stroke-opacity:1"
       id="g7"
       transform="matrix(0.55421926,0,0,0.55421926,5.3493689,0.4703967)"
       inkscape:label="world"><path
         d="M 3,12 A 9,9 0 1 0 21,12 9,9 0 0 0 3,12"
         id="path2-6"
         style="stroke:#dedede;stroke-opacity:1" /><path
         d="M 3.6,9 H 20.4"
         id="path3-6"
         style="stroke:#dedede;stroke-opacity:1" /><path
         d="M 3.6,15 H 20.4"
         id="path4-1"
         style="stroke:#dedede;stroke-opacity:1" /><path
         d="m 11.5,3 a 17,17 0 0 0 0,18"
         id="path5-5"
         style="stroke:#dedede;stroke-opacity:1" /><path
         d="m 12.5,3 a 17,17 0 0 1 0,18"
         id="path6"
         style="stroke:#dedede;stroke-opacity:1" /></g></g></svg>
