<?xml version="1.0" encoding="UTF-8" standalone="no"?>
<!-- Created with Inkscape (http://www.inkscape.org/) -->

<svg
   width="500"
   height="500"
   viewBox="0 0 132.29166 132.29167"
   version="1.1"
   id="svg5"
   xml:space="preserve"
   inkscape:version="1.2.2 (732a01da63, 2022-12-09)"
   sodipodi:docname="logo.svg"
   inkscape:export-filename="logo2.png"
   inkscape:export-xdpi="96"
   inkscape:export-ydpi="96"
   xmlns:inkscape="http://www.inkscape.org/namespaces/inkscape"
   xmlns:sodipodi="http://sodipodi.sourceforge.net/DTD/sodipodi-0.dtd"
   xmlns="http://www.w3.org/2000/svg"
   xmlns:svg="http://www.w3.org/2000/svg"><sodipodi:namedview
     id="namedview7"
     pagecolor="#505050"
     bordercolor="#ffffff"
     borderopacity="1"
     inkscape:showpageshadow="0"
     inkscape:pageopacity="0"
     inkscape:pagecheckerboard="1"
     inkscape:deskcolor="#505050"
     inkscape:document-units="px"
     showgrid="false"
     inkscape:lockguides="true"
     inkscape:zoom="1.0129245"
     inkscape:cx="104.15386"
     inkscape:cy="272.97197"
     inkscape:window-width="1920"
     inkscape:window-height="991"
     inkscape:window-x="-9"
     inkscape:window-y="-9"
     inkscape:window-maximized="1"
     inkscape:current-layer="layer1" /><defs
     id="defs2" /><g
     inkscape:label="Layer 1"
     inkscape:groupmode="layer"
     id="layer1"><g
       style="display:inline;fill:none;stroke:#fbbc05;stroke-width:2;stroke-linecap:round;stroke-linejoin:round;stroke-opacity:1"
       id="g356"
       transform="matrix(5.8918339,0,0,5.8918339,-10.90617,-4.5561755)"
       inkscape:label="Code"><path
         d="m 7,8 -4,4 4,4"
         id="path340"
         style="display:inline;stroke:#fbbc05;stroke-opacity:1"
         inkscape:label="left" /><path
         d="m 19.155524,8 4,4 -4,4"
         id="path342"
         inkscape:label="right"
         style="stroke:#fbbc05;stroke-opacity:1" /></g><g
       style="display:inline;fill:none;stroke:#5379ca;stroke-width:2;stroke-linecap:round;stroke-linejoin:round;stroke-opacity:1"
       id="g164"
       transform="matrix(3.3048043,-1.0949363,1.0949363,3.3048043,12.732473,39.300577)"
       inkscape:label="Rocket"><path
         style="display:inline;fill:#ea4335;stroke:#ea4335;stroke-width:2;stroke-linecap:round;stroke-linejoin:round;stroke-dasharray:none;stroke-opacity:1;fill-opacity:1"
         d="m 142.64676,267.22961 c 0.8982,-9.58602 5.05231,-20.81984 10.95194,-29.61697 2.81606,-4.19913 14.04707,-15.97085 15.23725,-15.97085 1.27431,0 11.99908,9.5286 16.60679,14.75458 7.45517,8.45551 7.38253,8.18145 3.40299,12.83955 -10.37172,12.14024 -25.94376,20.23465 -42.87533,22.28679 l -3.7687,0.45677 z"
         id="path496"
         transform="matrix(0.07599764,0,0,0.07599764,-5.8257295,-1.6345608)"
         inkscape:label="flame-color" /><path
         style="display:inline;fill:#4285f4;fill-opacity:1;stroke:#4285f4;stroke-width:2;stroke-linecap:round;stroke-linejoin:round;stroke-dasharray:none;stroke-opacity:1"
         d="m 228.36372,256.17085 c -11.04132,-30.89623 -37.19887,-57.69659 -67.80431,-69.47054 -3.26355,-1.25549 -6.17003,-2.48394 -6.45885,-2.72989 -0.84974,-0.7236 8.43399,-7.37948 14.48682,-10.38617 7.26403,-3.60835 13.61406,-5.50744 21.52306,-6.43683 12.99389,-1.52693 15.05424,-2.90909 18.94431,-12.70857 14.74638,-37.14762 49.06559,-62.957791 88.46032,-66.527649 12.19654,-1.105221 22.78099,5.541972 27.14807,17.049399 4.18511,11.0279 -1.90716,37.12274 -13.01981,55.76735 -10.27926,17.24637 -26.07556,31.73493 -44.33411,40.66378 -3.96519,1.93908 -8.38404,3.8775 -9.81966,4.30763 -3.1816,0.95323 -7.2404,4.1947 -8.63905,6.89938 -0.56902,1.10035 -1.352,5.07734 -1.73998,8.83775 -1.48296,14.37349 -6.54472,26.60955 -15.47649,37.41212 l -1.61524,1.95356 z m 56.68555,-91.97711 c 7.74137,-3.54411 13.42413,-10.98026 15.14758,-19.82126 2.23571,-11.46879 -4.158,-23.52616 -15.22619,-28.71382 -3.49544,-1.63831 -4.85957,-1.87091 -10.97254,-1.87091 -6.10032,0 -7.48055,0.23426 -10.94258,1.85719 -7.95325,3.72835 -13.62425,11.17033 -15.20852,19.95795 -2.39025,13.25823 6.47581,26.82283 19.78644,30.27223 4.22204,1.09413 13.259,0.22167 17.41581,-1.68138 z"
         id="path1129"
         transform="matrix(0.07599764,0,0,0.07599764,-5.8257295,-1.6345608)"
         inkscape:label="rocket-color" /><path
         d="m 7,14 a 6,6 0 0 0 -3,6 6,6 0 0 0 6,-3"
         id="path150"
         style="display:inline;stroke:#ea4335;stroke-opacity:1"
         inkscape:label="flame" /><path
         d="m 4,13 a 8,8 0 0 1 7,7 6,6 0 0 0 3,-5 9,9 0 0 0 6,-8 3,3 0 0 0 -3,-3 9,9 0 0 0 -8,6 6,6 0 0 0 -5,3"
         id="path148"
         style="display:inline;fill:none;stroke:#4285f4;stroke-width:2;stroke-linecap:round;stroke-linejoin:round;stroke-opacity:1"
         inkscape:label="rocket" /><path
         d="m 15,9 m -1,0 a 1,1 0 1 0 2,0 1,1 0 1 0 -2,0"
         id="path152"
         style="display:inline;fill:#00ff00;stroke:#fef2cd;stroke-opacity:1"
         inkscape:label="window" /></g></g></svg>
